# xmcd
#
# Track frame offsets:
#	150
#	16285
#	31827
#	49672
#	67297
#	85255
#	100935
#	120900
#	136950
#	152775
#	167362
#	186132
#
# Disc length: 2750 seconds
#
# Revision: 1
# Processed by: cddbd v1.5.1PL2 Copyright (c) Steve Scherf et al.
# Submitted via: audiograbber 1.83.01
#
DISCID=920abc0c
DTITLE=Hell's Kitchen - Doctor's Oven
DYEAR=2005
DGENRE=
TTITLE0=My House
TTITLE1=Jack is a Writer
TTITLE2=Brick of my Body
TTITLE3=Dance Machine
TTITLE4=Stay in my Block
TTITLE5=Nice
TTITLE6=Unfair
TTITLE7=Lupi is my Dog
TTITLE8=Milano
TTITLE9=Misery
TTITLE10=Lumfo
TTITLE11=Easy Start
EXTD=
EXTT0=
EXTT1=
EXTT2=
EXTT3=
EXTT4=
EXTT5=
EXTT6=
EXTT7=
EXTT8=
EXTT9=
EXTT10=
EXTT11=
PLAYORDER=
